PathFileType	4	(X/Y/Z)	D:\TRACE\v60_Jaco2_6-2-23\ArmBody_Mo2_DMP_1-platform.trc
DataRate	CameraRate	NumFrames	NumMarkers	Units	OrigDataRate	OrigDataStartFrame	OrigNumFrames
100.00	100.00	      35	5	mm	100.00	4095	      6551
Frame#	Time	Left_Front			Right_Front			Left_Aft			Right_Aft			Post			
		X1	Y1	Z1	X2	Y2	Z2	X3	Y3	Z3	X4	Y4	Z4	X5	Y5	Z5	

4095	40.940				731.88208	-43.36454	-643.92029	-767.94415	42.59333	466.90894	649.48431	51.28801	568.29199	-44.16612	1224.77795	-1081.16223	
4096	40.950				732.06323	-44.01430	-644.01611	-767.73389	43.09643	466.60300	650.05975	51.89597	568.11066	-43.93643	1223.65564	-1082.98096	
4097	40.960				732.25995	-44.73582	-644.02081	-767.08252	43.33318	466.63904	650.61646	52.56233	568.00812	-43.27935	1222.45178	-1084.65234	
4098	40.970				732.86462	-45.39197	-644.05029	-766.66461	43.86795	466.50830	650.94067	53.03581	567.83148	-42.81038	1221.21069	-1086.43298	
4099	40.980				733.06714	-45.98965	-644.19794	-766.26581	44.43850	466.01462	651.32733	53.48564	567.65332	-42.86430	1220.25061	-1088.14514	
4100	40.990				733.46106	-46.64289	-644.49438	-765.81024	44.77351	465.95438	651.62268	53.86821	567.40881	-42.15878	1219.24268	-1089.22302	
4101	41.000				733.95251	-47.17992	-644.65869	-765.14240	44.69534	465.94806	652.06165	54.52015	567.35004	-41.39808	1218.16687	-1090.70874	
4102	41.010				734.58044	-47.80598	-644.72906	-764.94318	45.19352	465.69907	652.53717	54.94275	567.17822	-40.93095	1217.43042	-1092.09924	
4103	41.020				734.95197	-48.23618	-644.71112	-764.35968	45.76705	465.53107	652.75085	55.14593	566.70508	-40.44804	1216.44470	-1093.39075	
4104	41.030				735.26257	-48.64002	-644.88281	-763.75751	45.99070	465.45685	652.85712	54.98407	566.20844	-40.18047	1215.75671	-1094.42053	
4105	41.040				735.91840	-49.17599	-644.82111	-763.37177	46.30997	465.09152	652.93445	55.04410	565.57819	-39.72034	1214.98132	-1095.38672	
4106	41.050				736.71460	-49.58508	-644.83850	-762.86652	46.71565	464.97192	655.22412	56.83949	567.14801	-38.97576	1214.33130	-1096.19250	
4107	41.060				737.12457	-49.99437	-644.85376	-762.57825	47.11835	464.88770	655.69440	57.16496	566.68390	-38.23772	1213.48254	-1097.03162	
4108	41.070				737.64221	-50.66630	-644.91034	-761.67462	47.18183	464.75375	655.88580	57.11221	566.25262	-37.77283	1212.64917	-1097.91345	
4109	41.080				738.10168	-50.98598	-645.05988	-761.21802	47.64442	464.64792	656.23553	57.38582	566.00806	-37.50611	1212.04224	-1098.62122	
4110	41.090				738.88092	-51.54086	-645.02954	-760.67151	47.83609	464.55585	656.75562	57.72701	565.93091	-36.65081	1211.27429	-1099.50964	
4111	41.100				739.51294	-51.86974	-645.14807	-760.20880	47.99879	464.47763	657.25427	57.91748	565.92828	-35.88687	1210.77344	-1099.62781	
4112	41.110				740.30615	-52.21808	-645.27368	-759.23425	48.03973	464.40625	658.22632	58.27226	565.73016	-35.18370	1210.16467	-1100.24780	
4113	41.120				740.92871	-52.28481	-645.25702	-758.67377	48.55692	464.06625	658.08984	57.84556	565.26575	-34.51518	1209.95056	-1100.83765	
4114	41.130				741.25934	-52.38641	-645.39819	-758.03156	48.57100	463.96115	660.04333	58.97539	565.97449	-33.89013	1209.68140	-1101.34656	
4115	41.140				741.86200	-52.63511	-645.54626	-757.20667	48.26598	463.95706	660.89001	59.01755	566.40228	-33.32699	1209.53857	-1101.71326	
4116	41.150				742.92841	-52.61831	-645.50061	-756.66541	48.46119	464.16632	661.62561	58.91689	565.94885	-32.46718	1209.57336	-1101.97620	
4117	41.160				744.11804	-52.33809	-644.98517	-755.91998	48.58381	464.42966	661.93860	58.72968	566.00067	-31.82995	1209.74268	-1102.25623	
4118	41.170				744.67462	-52.13641	-644.85547	-755.28485	48.52259	464.43634	662.47455	58.60604	565.88391	-31.32480	1209.94141	-1102.55725	
4119	41.180				745.28394	-51.87804	-644.92120	-754.19672	47.96444	464.46674	663.34253	58.33202	565.79047	-30.48625	1210.15613	-1102.72083	
4120	41.190				746.02557	-51.77348	-645.01758	-753.79004	48.33370	464.37891	663.78705	58.00831	565.70038	-29.71406	1210.45935	-1102.65283	
4121	41.200				747.06018	-51.51244	-645.01904	-753.04620	48.05219	464.51010	664.38062	57.85441	565.72437	-28.76899	1210.56970	-1102.38440	
4122	41.210				747.75952	-51.39280	-644.85962	-751.80231	47.76122	464.76764	665.21838	57.60044	565.79889	-27.92772	1210.98828	-1102.16919	
4123	41.220				748.45697	-51.04266	-644.76611	-750.88544	47.30233	464.93256	665.63245	57.12876	565.57898	-27.16288	1211.42554	-1101.62927	
4124	41.230				749.27686	-50.80347	-644.84131	-750.22430	47.21160	464.74393	666.47565	56.87441	565.57361	-26.22901	1211.75476	-1101.14490	
4125	41.240				750.45526	-50.61293	-644.89630	-749.54688	47.57486	464.62793	667.04291	56.57113	565.44104	-25.66474	1212.19531	-1100.63281	
4126	41.250				751.13391	-50.40342	-644.74042	-748.78070	47.16088	464.67889	667.81134	56.27649	565.59985	-24.55634	1212.57275	-1099.70886	
4127	41.260				752.04889	-50.03339	-644.56836	-747.72778	46.95902	464.97604	668.86206	56.07426	565.54810	-23.70973	1213.29395	-1098.97144	
4128	41.270				752.94263	-49.79326	-644.56671	-746.81360	46.80402	465.19125	669.85992	55.88734	565.50830	-23.00971	1213.88074	-1097.88098	
4129	41.280				753.91931	-49.34558	-644.56482	-746.20532	46.51684	465.19662	670.65045	55.57907	565.72235	-22.08652	1214.52820	-1096.69751	
